HIERARCHY
ROOT root
{
	OFFSET	0	260	24
	CHANNELS 6  Xposition Yposition Zposition Xrotation Yrotation Zrotation
	JOINT spine_3
	{
		OFFSET	0	81.6	10.2
		CHANNELS 3  Xrotation Yrotation Zrotation
		JOINT spine_4
		{
			OFFSET	0	110.4	14.6
			CHANNELS 3  Xrotation Yrotation Zrotation
			JOINT neck_1
			{
				OFFSET	0	71.8	-50.3
				CHANNELS 3  Xrotation Yrotation Zrotation
				JOINT neck_2
				{
					OFFSET	0	86.2	-25.8
					CHANNELS 3  Xrotation Yrotation Zrotation
					JOINT head_ee
					{
						OFFSET	0	179.8	-8.7
						CHANNELS 3  Xrotation Yrotation Zrotation
						End Site
						{
							OFFSET	1	0	0
						}
					}
				}
			}
			JOINT left_clavicle
			{
				OFFSET	-43.2	22.4	-70.8
				CHANNELS 3  Xrotation Yrotation Zrotation
				JOINT left_shoulder
				{
					OFFSET	-93.9	-5.79999	48.7
					CHANNELS 3  Xrotation Yrotation Zrotation
					JOINT left_elbow
					{
						OFFSET	-291.4	-30.8	15.2
						CHANNELS 3  Xrotation Yrotation Zrotation
						JOINT left_lowarm_twist
						{
							OFFSET	-110.7	-3.89999	13.6
							CHANNELS 3  Xrotation Yrotation Zrotation
							JOINT left_hand
							{
								OFFSET	-110.7	-3.89999	13.6
								CHANNELS 3  Xrotation Yrotation Zrotation
								JOINT left_ee
								{
									OFFSET	-80.8	-5.10001	12.1
									CHANNELS 3  Xrotation Yrotation Zrotation
									End Site
									{
										OFFSET	1	0	0
									}
								}
							}
						}
					}
				}
			}
			JOINT right_clavicle
			{
				OFFSET	43.2	22.4	-70.8
				CHANNELS 3  Xrotation Yrotation Zrotation
				JOINT right_shoulder
				{
					OFFSET	93.9	-5.79999	48.7
					CHANNELS 3  Xrotation Yrotation Zrotation
					JOINT right_elbow
					{
						OFFSET	291.4	-30.8	15.2
						CHANNELS 3  Xrotation Yrotation Zrotation
						JOINT right_lowarm_twist
						{
							OFFSET	110.7	-3.89999	13.6
							CHANNELS 3  Xrotation Yrotation Zrotation
							JOINT right_hand
							{
								OFFSET	110.7	-3.89999	13.6
								CHANNELS 3  Xrotation Yrotation Zrotation
								JOINT right_ee
								{
									OFFSET	80.8	-5.10001	12.1
									CHANNELS 3  Xrotation Yrotation Zrotation
									End Site
									{
										OFFSET	1	0	0
									}
								}
							}
						}
					}
				}
			}
		}
	}
	JOINT spine_2
	{
		OFFSET	0	-124.9	-9.1
		CHANNELS 3  Xrotation Yrotation Zrotation
		JOINT spine_1
		{
			OFFSET	0	-112	10
			CHANNELS 3  Xrotation Yrotation Zrotation
			JOINT left_hip
			{
				OFFSET	-82.8	-137.5	0.300001
				CHANNELS 3  Xrotation Yrotation Zrotation
				JOINT left_knee
				{
					OFFSET	-28.2	-396.7	2.2
					CHANNELS 3  Xrotation Yrotation Zrotation
					JOINT left_ankle
					{
						OFFSET	-11.7	-411.3	35.4
						CHANNELS 3  Xrotation Yrotation Zrotation
						JOINT left_toes
						{
							OFFSET	0	-60	-88.6
							CHANNELS 3  Xrotation Yrotation Zrotation
							JOINT left_foot_ee
							{
								OFFSET	-22.5	-16.5	-42.2
								CHANNELS 3  Xrotation Yrotation Zrotation
								End Site
								{
									OFFSET	1	0	0
								}
							}
						}
					}
				}
			}
			JOINT right_hip
			{
				OFFSET	82.8	-137.5	0.300001
				CHANNELS 3  Xrotation Yrotation Zrotation
				JOINT right_knee
				{
					OFFSET	28.2	-396.7	2.2
					CHANNELS 3  Xrotation Yrotation Zrotation
					JOINT right_ankle
					{
						OFFSET	11.7	-411.3	35.4
						CHANNELS 3  Xrotation Yrotation Zrotation
						JOINT right_toes
						{
							OFFSET	0	-60	-88.6
							CHANNELS 3  Xrotation Yrotation Zrotation
							JOINT right_foot_ee
							{
								OFFSET	22.5	-16.5	-42.2
								CHANNELS 3  Xrotation Yrotation Zrotation
								End Site
								{
									OFFSET	1	0	0
								}
							}
						}
					}
				}
			}
		}
	}
}
MOTION
Frames: 15
Frame Time: 0.02
391.555 721.904 -1204.45 -173.94117448 -18.9452639162 -177.019011538 4.21312 0.336375 -1.83255 4.20843 0.0427883 -1.86266 -15.4834 -6.6905 0.0269829 -15.6362 -12.8256 -2.26713 -0.0 0.0 -0.0 3.20997 19.8849 7.05383 -23.6029 -32.9832 52.1117 0.505553 -14.06 0.0623431 -24.3252 -1.45842 2.7235 -1.61857 14.3266 -4.21191 -0.0 0.0 -0.0 5.85998 10.3931 -10.9651 -39.9867 55.4602 -37.3166 0.372154 10.4456 -0.0340182 -69.6881 6.50622 -5.29935 0.283717 -3.24439 -3.23833 0.0 0.0 0.0 -4.21215 -0.217136 1.85046 -4.21405 -0.0989666 1.86053 34.8784 -24.3875 -6.92053 -37.3724 -0.308118 5.6269 26.5613 -18.3723 -3.86622 -12.2175 0.0 0.0 -0.0 0.0 -0.0 11.1569 -5.13429 -4.17072 4.84334 0.22953 0.707417 18.2002 -23.5686 2.60963 -0.988518 0.0 0.0 0.0 0.0 0.0 
396.076210725 721.525 -1186.76382547 -173.980960592 -32.5022686992 -175.121176404 4.21465 0.0505388 -1.6958 4.2107 -0.217877 -1.68251 -14.7232 1.10839 0.14231 -14.7265 2.03304 0.495843 -0.0 0.0 -0.0 2.02272 19.3906 5.26923 -21.2514 -30.9294 59.9429 0.334789 -9.41668 0.0275738 -20.0285 -1.1183 2.29086 -0.809843 11.5966 -0.354067 -0.0 0.0 -0.0 11.3781 4.04874 -22.7614 -50.7275 49.1699 -21.5471 0.577568 15.9665 -0.0810006 -79.3664 7.7414 -5.28783 -1.45754 -24.7254 -1.53894 0.0 0.0 0.0 -4.21381 0.0591576 1.69552 -4.21539 0.166913 1.68833 35.9985 -23.9418 -7.16931 -37.7864 -0.331977 5.68588 15.1721 -17.2526 -2.32894 -4.44046 0.0 0.0 -0.0 0.0 -0.0 8.43442 -18.5194 -6.983 2.01508 0.0882097 0.296612 32.6331 -22.8577 4.35212 -2.14104 0.0 0.0 0.0 0.0 0.0 
395.854191701 721.525 -1186.70854948 -174.028095591 -31.7880797175 -175.209763251 4.21465 0.0505388 -1.6958 4.2107 -0.217877 -1.68251 -14.7232 1.10839 0.14231 -14.7265 2.03304 0.495843 -0.0 0.0 -0.0 2.02272 19.3906 5.26923 -21.2514 -30.9294 59.9429 0.334789 -9.41668 0.0275738 -20.0285 -1.1183 2.29086 -0.809843 11.5966 -0.354067 -0.0 0.0 -0.0 11.3781 4.04874 -22.7614 -50.7275 49.1699 -21.5471 0.577568 15.9665 -0.0810006 -79.3664 7.7414 -5.28783 -1.45754 -24.7254 -1.53894 0.0 0.0 0.0 -4.21381 0.0591576 1.69552 -4.21539 0.166913 1.68833 35.9985 -23.9418 -7.16931 -37.7864 -0.331977 5.68588 15.1721 -17.2526 -2.32894 -4.44046 0.0 0.0 -0.0 0.0 -0.0 8.43442 -18.5194 -6.983 2.01508 0.0882097 0.296612 32.6331 -22.8577 4.35212 -2.14104 0.0 0.0 0.0 0.0 0.0 
395.490913092 721.525 -1186.62443678 -174.101409873 -30.623964799 -175.351257322 4.21465 0.0505388 -1.6958 4.2107 -0.217877 -1.68251 -14.7232 1.10839 0.14231 -14.7265 2.03304 0.495843 -0.0 0.0 -0.0 2.02272 19.3906 5.26923 -21.2514 -30.9294 59.9429 0.334789 -9.41668 0.0275738 -20.0285 -1.1183 2.29086 -0.809843 11.5966 -0.354067 -0.0 0.0 -0.0 11.3781 4.04874 -22.7614 -50.7275 49.1699 -21.5471 0.577568 15.9665 -0.0810006 -79.3664 7.7414 -5.28783 -1.45754 -24.7254 -1.53894 0.0 0.0 0.0 -4.21381 0.0591576 1.69552 -4.21539 0.166913 1.68833 35.9985 -23.9418 -7.16931 -37.7864 -0.331977 5.68588 15.1721 -17.2526 -2.32894 -4.44046 0.0 0.0 -0.0 0.0 -0.0 8.43442 -18.5194 -6.983 2.01508 0.0882097 0.296612 32.6331 -22.8577 4.35212 -2.14104 0.0 0.0 0.0 0.0 0.0 
395.270469241 721.525 -1186.57718812 -174.143705365 -29.9200700569 -175.435157728 4.21465 0.0505388 -1.6958 4.2107 -0.217877 -1.68251 -14.7232 1.10839 0.14231 -14.7265 2.03304 0.495843 -0.0 0.0 -0.0 2.02272 19.3906 5.26923 -21.2514 -30.9294 59.9429 0.334789 -9.41668 0.0275738 -20.0285 -1.1183 2.29086 -0.809843 11.5966 -0.354067 -0.0 0.0 -0.0 11.3781 4.04874 -22.7614 -50.7275 49.1699 -21.5471 0.577568 15.9665 -0.0810006 -79.3664 7.7414 -5.28783 -1.45754 -24.7254 -1.53894 0.0 0.0 0.0 -4.21381 0.0591576 1.69552 -4.21539 0.166913 1.68833 35.9985 -23.9418 -7.16931 -37.7864 -0.331977 5.68588 15.1721 -17.2526 -2.32894 -4.44046 0.0 0.0 -0.0 0.0 -0.0 8.43442 -18.5194 -6.983 2.01508 0.0882097 0.296612 32.6331 -22.8577 4.35212 -2.14104 0.0 0.0 0.0 0.0 0.0 
399.711031129 721.622 -1184.30359295 -174.034056706 -31.6356961969 -175.356169083 4.16864 0.0527636 -1.5789 4.16522 -0.197226 -1.56743 -14.4209 3.01324 0.213271 -14.4458 5.62559 1.17047 -0.0 0.0 -0.0 2.1265 18.9264 5.39875 -20.5577 -30.5712 61.2741 0.26032 -7.34818 0.0167159 -18.3292 -0.992933 2.11299 -0.451629 11.9932 2.08337 -0.0 0.0 -0.0 11.4515 3.88596 -22.914 -50.5668 49.2186 -19.8678 0.738235 20.0874 -0.130753 -80.1361 7.8391 -5.27789 -1.93036 -26.3599 0.344808 0.0 0.0 0.0 -4.16791 0.0519125 1.57893 -4.16928 0.152266 1.57243 34.2266 -23.5322 -6.98533 -33.6107 -0.111084 5.0837 14.0621 -16.3357 -2.15398 -4.89571 0.0 0.0 -0.0 0.0 -0.0 9.18626 -18.4598 -6.00079 0.0996859 0.00411764 0.0147435 32.1515 -25.77 4.37227 -2.84278 0.0 0.0 0.0 0.0 0.0 
399.631980579 721.622 -1184.2717705 -174.048361009 -31.4122702629 -175.383527077 4.16864 0.0527636 -1.5789 4.16522 -0.197226 -1.56743 -14.4209 3.01324 0.213271 -14.4458 5.62559 1.17047 -0.0 0.0 -0.0 2.1265 18.9264 5.39875 -20.5577 -30.5712 61.2741 0.26032 -7.34818 0.0167159 -18.3292 -0.992933 2.11299 -0.451629 11.9932 2.08337 -0.0 0.0 -0.0 11.4515 3.88596 -22.914 -50.5668 49.2186 -19.8678 0.738235 20.0874 -0.130753 -80.1361 7.8391 -5.27789 -1.93036 -26.3599 0.344808 0.0 0.0 0.0 -4.16791 0.0519125 1.57893 -4.16928 0.152266 1.57243 34.2266 -23.5322 -6.98533 -33.6107 -0.111084 5.0837 14.0621 -16.3357 -2.15398 -4.89571 0.0 0.0 -0.0 0.0 -0.0 9.18626 -18.4598 -6.00079 0.0996859 0.00411764 0.0147435 32.1515 -25.77 4.37227 -2.84278 0.0 0.0 0.0 0.0 0.0 
399.720144489 721.622 -1184.30728478 -174.0323959 -31.6614762653 -175.353003881 4.16864 0.0527636 -1.5789 4.16522 -0.197226 -1.56743 -14.4209 3.01324 0.213271 -14.4458 5.62559 1.17047 -0.0 0.0 -0.0 2.1265 18.9264 5.39875 -20.5577 -30.5712 61.2741 0.26032 -7.34818 0.0167159 -18.3292 -0.992933 2.11299 -0.451629 11.9932 2.08337 -0.0 0.0 -0.0 11.4515 3.88596 -22.914 -50.5668 49.2186 -19.8678 0.738235 20.0874 -0.130753 -80.1361 7.8391 -5.27789 -1.93036 -26.3599 0.344808 0.0 0.0 0.0 -4.16791 0.0519125 1.57893 -4.16928 0.152266 1.57243 34.2266 -23.5322 -6.98533 -33.6107 -0.111084 5.0837 14.0621 -16.3357 -2.15398 -4.89571 0.0 0.0 -0.0 0.0 -0.0 9.18626 -18.4598 -6.00079 0.0996859 0.00411764 0.0147435 32.1515 -25.77 4.37227 -2.84278 0.0 0.0 0.0 0.0 0.0 
399.767662601 721.622 -1184.32661226 -174.023696638 -31.795972042 -175.336462169 4.16864 0.0527636 -1.5789 4.16522 -0.197226 -1.56743 -14.4209 3.01324 0.213271 -14.4458 5.62559 1.17047 -0.0 0.0 -0.0 2.1265 18.9264 5.39875 -20.5577 -30.5712 61.2741 0.26032 -7.34818 0.0167159 -18.3292 -0.992933 2.11299 -0.451629 11.9932 2.08337 -0.0 0.0 -0.0 11.4515 3.88596 -22.914 -50.5668 49.2186 -19.8678 0.738235 20.0874 -0.130753 -80.1361 7.8391 -5.27789 -1.93036 -26.3599 0.344808 0.0 0.0 0.0 -4.16791 0.0519125 1.57893 -4.16928 0.152266 1.57243 34.2266 -23.5322 -6.98533 -33.6107 -0.111084 5.0837 14.0621 -16.3357 -2.15398 -4.89571 0.0 0.0 -0.0 0.0 -0.0 9.18626 -18.4598 -6.00079 0.0996859 0.00411764 0.0147435 32.1515 -25.77 4.37227 -2.84278 0.0 0.0 0.0 0.0 0.0 
533.733943844 711.009 -1170.02058675 -175.415073832 -34.2445774051 -176.605876386 4.33919 -0.186906 -1.94763 4.33423 -0.492097 -1.89371 -15.4009 11.5814 -0.353345 -15.8841 22.3766 3.71947 -0.0 0.0 -0.0 3.36503 16.634 7.21162 -20.7066 -24.2126 69.004 0.210236 -5.94578 0.0109182 -13.0457 -0.637773 1.53767 0.94481 7.02766 9.11707 -0.0 0.0 -0.0 9.77463 -4.10687 -18.9538 -48.8991 48.641 -19.3191 1.3595 33.9569 -0.415101 -84.1983 8.35156 -5.20357 -4.77925 -28.9567 14.5737 0.0 0.0 0.0 -4.33809 0.303997 1.93282 -4.34007 0.426349 1.90958 28.4095 -13.4081 -2.18703 -35.8643 -0.224831 5.41065 24.5289 6.73551 -3.27593 -4.71768 0.0 0.0 -0.0 0.0 -0.0 13.291 -11.9633 4.65972 -14.2129 -0.319679 -2.15214 19.1319 -28.8066 2.82006 -2.98329 0.0 0.0 0.0 0.0 0.0 
533.843386301 711.009 -1170.47572013 -175.405052028 -34.4273299794 -176.588108648 4.33919 -0.186906 -1.94763 4.33423 -0.492097 -1.89371 -15.4009 11.5814 -0.353345 -15.8841 22.3766 3.71947 -0.0 0.0 -0.0 3.36503 16.634 7.21162 -20.7066 -24.2126 69.004 0.210236 -5.94578 0.0109182 -13.0457 -0.637773 1.53767 0.94481 7.02766 9.11707 -0.0 0.0 -0.0 9.77463 -4.10687 -18.9538 -48.8991 48.641 -19.3191 1.3595 33.9569 -0.415101 -84.1983 8.35156 -5.20357 -4.77925 -28.9567 14.5737 0.0 0.0 0.0 -4.33809 0.303997 1.93282 -4.34007 0.426349 1.90958 28.4095 -13.4081 -2.18703 -35.8643 -0.224831 5.41065 24.5289 6.73551 -3.27593 -4.71768 0.0 0.0 -0.0 0.0 -0.0 13.291 -11.9633 4.65972 -14.2129 -0.319679 -2.15214 19.1319 -28.8066 2.82006 -2.98329 0.0 0.0 0.0 0.0 0.0 
533.655384188 711.009 -1169.69777154 -175.422132066 -34.1148680491 -176.618440192 4.33919 -0.186906 -1.94763 4.33423 -0.492097 -1.89371 -15.4009 11.5814 -0.353345 -15.8841 22.3766 3.71947 -0.0 0.0 -0.0 3.36503 16.634 7.21162 -20.7066 -24.2126 69.004 0.210236 -5.94578 0.0109182 -13.0457 -0.637773 1.53767 0.94481 7.02766 9.11707 -0.0 0.0 -0.0 9.77463 -4.10687 -18.9538 -48.8991 48.641 -19.3191 1.3595 33.9569 -0.415101 -84.1983 8.35156 -5.20357 -4.77925 -28.9567 14.5737 0.0 0.0 0.0 -4.33809 0.303997 1.93282 -4.34007 0.426349 1.90958 28.4095 -13.4081 -2.18703 -35.8643 -0.224831 5.41065 24.5289 6.73551 -3.27593 -4.71768 0.0 0.0 -0.0 0.0 -0.0 13.291 -11.9633 4.65972 -14.2129 -0.319679 -2.15214 19.1319 -28.8066 2.82006 -2.98329 0.0 0.0 0.0 0.0 0.0 
533.371892601 711.009 -1168.55841962 -175.446715841 -33.6564769971 -176.662533328 4.33919 -0.186906 -1.94763 4.33423 -0.492097 -1.89371 -15.4009 11.5814 -0.353345 -15.8841 22.3766 3.71947 -0.0 0.0 -0.0 3.36503 16.634 7.21162 -20.7066 -24.2126 69.004 0.210236 -5.94578 0.0109182 -13.0457 -0.637773 1.53767 0.94481 7.02766 9.11707 -0.0 0.0 -0.0 9.77463 -4.10687 -18.9538 -48.8991 48.641 -19.3191 1.3595 33.9569 -0.415101 -84.1983 8.35156 -5.20357 -4.77925 -28.9567 14.5737 0.0 0.0 0.0 -4.33809 0.303997 1.93282 -4.34007 0.426349 1.90958 28.4095 -13.4081 -2.18703 -35.8643 -0.224831 5.41065 24.5289 6.73551 -3.27593 -4.71768 0.0 0.0 -0.0 0.0 -0.0 13.291 -11.9633 4.65972 -14.2129 -0.319679 -2.15214 19.1319 -28.8066 2.82006 -2.98329 0.0 0.0 0.0 0.0 0.0 
533.379736366 711.009 -1168.58942661 -175.446053506 -33.6689643175 -176.661338429 4.33919 -0.186906 -1.94763 4.33423 -0.492097 -1.89371 -15.4009 11.5814 -0.353345 -15.8841 22.3766 3.71947 -0.0 0.0 -0.0 3.36503 16.634 7.21162 -20.7066 -24.2126 69.004 0.210236 -5.94578 0.0109182 -13.0457 -0.637773 1.53767 0.94481 7.02766 9.11707 -0.0 0.0 -0.0 9.77463 -4.10687 -18.9538 -48.8991 48.641 -19.3191 1.3595 33.9569 -0.415101 -84.1983 8.35156 -5.20357 -4.77925 -28.9567 14.5737 0.0 0.0 0.0 -4.33809 0.303997 1.93282 -4.34007 0.426349 1.90958 28.4095 -13.4081 -2.18703 -35.8643 -0.224831 5.41065 24.5289 6.73551 -3.27593 -4.71768 0.0 0.0 -0.0 0.0 -0.0 13.291 -11.9633 4.65972 -14.2129 -0.319679 -2.15214 19.1319 -28.8066 2.82006 -2.98329 0.0 0.0 0.0 0.0 0.0 
533.429670577 711.009 -1168.78749283 -175.441813844 -33.748714195 -176.653699026 4.33919 -0.186906 -1.94763 4.33423 -0.492097 -1.89371 -15.4009 11.5814 -0.353345 -15.8841 22.3766 3.71947 -0.0 0.0 -0.0 3.36503 16.634 7.21162 -20.7066 -24.2126 69.004 0.210236 -5.94578 0.0109182 -13.0457 -0.637773 1.53767 0.94481 7.02766 9.11707 -0.0 0.0 -0.0 9.77463 -4.10687 -18.9538 -48.8991 48.641 -19.3191 1.3595 33.9569 -0.415101 -84.1983 8.35156 -5.20357 -4.77925 -28.9567 14.5737 0.0 0.0 0.0 -4.33809 0.303997 1.93282 -4.34007 0.426349 1.90958 28.4095 -13.4081 -2.18703 -35.8643 -0.224831 5.41065 24.5289 6.73551 -3.27593 -4.71768 0.0 0.0 -0.0 0.0 -0.0 13.291 -11.9633 4.65972 -14.2129 -0.319679 -2.15214 19.1319 -28.8066 2.82006 -2.98329 0.0 0.0 0.0 0.0 0.0 
